<mxfile host="www.draw.io" modified="2020-02-13T15:08:30.595Z" agent="Mozilla/5.0 (Windows NT 6.3; Win64; x64) AppleWebKit/537.36 (KHTML, like Gecko) Chrome/80.0.3987.87 Safari/537.36" etag="HGkO3I1tWFmoh5ZIzTyt" version="12.7.0" type="github" pages="2">
  <diagram id="prtHgNgQTEPvFCAcTncT" name="Wydanie_kart_podarunkowych">
    <mxGraphModel dx="3673" dy="1953" grid="1" gridSize="10" guides="1" tooltips="1" connect="1" arrows="1" fold="1" page="1" pageScale="1" pageWidth="827" pageHeight="1169" math="0" shadow="0">
      <root>
        <mxCell id="0"/>
        <mxCell id="1" parent="0"/>
        <mxCell id="dNxyNK7c78bLwvsdeMH5-19" value="" style="swimlane;html=1;childLayout=stackLayout;resizeParent=1;resizeParentMax=0;horizontal=0;startSize=20;horizontalStack=0;" parent="1" vertex="1">
          <mxGeometry x="120" y="30" width="3420" height="570" as="geometry"/>
        </mxCell>
        <mxCell id="dNxyNK7c78bLwvsdeMH5-27" value="" style="edgeStyle=orthogonalEdgeStyle;rounded=0;orthogonalLoop=1;jettySize=auto;html=1;dashed=1;endArrow=none;endFill=0;entryX=0.5;entryY=0;entryDx=0;entryDy=0;" parent="dNxyNK7c78bLwvsdeMH5-19" source="dNxyNK7c78bLwvsdeMH5-24" target="dNxyNK7c78bLwvsdeMH5-28" edge="1">
          <mxGeometry relative="1" as="geometry"/>
        </mxCell>
        <mxCell id="dNxyNK7c78bLwvsdeMH5-31" style="edgeStyle=orthogonalEdgeStyle;rounded=0;orthogonalLoop=1;jettySize=auto;html=1;endArrow=classic;endFill=1;entryX=0.323;entryY=1;entryDx=0;entryDy=0;entryPerimeter=0;" parent="dNxyNK7c78bLwvsdeMH5-19" source="dNxyNK7c78bLwvsdeMH5-28" target="dVlf60h_YGhDtAhVZqEt-1" edge="1">
          <mxGeometry relative="1" as="geometry">
            <mxPoint x="440" y="110" as="targetPoint"/>
          </mxGeometry>
        </mxCell>
        <mxCell id="dNxyNK7c78bLwvsdeMH5-20" value="Makao" style="swimlane;html=1;startSize=20;horizontal=0;" parent="dNxyNK7c78bLwvsdeMH5-19" vertex="1">
          <mxGeometry x="20" width="3400" height="270" as="geometry"/>
        </mxCell>
        <mxCell id="dNxyNK7c78bLwvsdeMH5-25" value="" style="edgeStyle=orthogonalEdgeStyle;rounded=0;orthogonalLoop=1;jettySize=auto;html=1;" parent="dNxyNK7c78bLwvsdeMH5-20" source="dNxyNK7c78bLwvsdeMH5-23" target="dNxyNK7c78bLwvsdeMH5-24" edge="1">
          <mxGeometry relative="1" as="geometry"/>
        </mxCell>
        <mxCell id="dNxyNK7c78bLwvsdeMH5-23" value="" style="ellipse;whiteSpace=wrap;html=1;" parent="dNxyNK7c78bLwvsdeMH5-20" vertex="1">
          <mxGeometry x="60" y="50" width="40" height="40" as="geometry"/>
        </mxCell>
        <mxCell id="dNxyNK7c78bLwvsdeMH5-24" value="Wprowadzenie ręczne lub skanowanie dowodu zakupu" style="rounded=0;whiteSpace=wrap;html=1;fontFamily=Helvetica;fontSize=12;fontColor=#000000;align=center;" parent="dNxyNK7c78bLwvsdeMH5-20" vertex="1">
          <mxGeometry x="180" y="40" width="140" height="60" as="geometry"/>
        </mxCell>
        <mxCell id="o-01WKtyarhJ4CHqcBXP-33" style="edgeStyle=orthogonalEdgeStyle;rounded=0;orthogonalLoop=1;jettySize=auto;html=1;entryX=0;entryY=0.5;entryDx=0;entryDy=0;" parent="dNxyNK7c78bLwvsdeMH5-20" source="dNxyNK7c78bLwvsdeMH5-30" target="o-01WKtyarhJ4CHqcBXP-32" edge="1">
          <mxGeometry relative="1" as="geometry"/>
        </mxCell>
        <mxCell id="dNxyNK7c78bLwvsdeMH5-30" value="Wybór produktów dla których wydane zostaną karty podarunkowe" style="rounded=0;whiteSpace=wrap;html=1;fontFamily=Helvetica;fontSize=12;fontColor=#000000;align=center;" parent="dNxyNK7c78bLwvsdeMH5-20" vertex="1">
          <mxGeometry x="500" y="40" width="150" height="60" as="geometry"/>
        </mxCell>
        <mxCell id="dNxyNK7c78bLwvsdeMH5-32" value="" style="ellipse;whiteSpace=wrap;html=1;" parent="dNxyNK7c78bLwvsdeMH5-20" vertex="1">
          <mxGeometry x="2490" y="50" width="40" height="40" as="geometry"/>
        </mxCell>
        <mxCell id="o-01WKtyarhJ4CHqcBXP-30" style="edgeStyle=orthogonalEdgeStyle;rounded=0;orthogonalLoop=1;jettySize=auto;html=1;entryX=0;entryY=0.5;entryDx=0;entryDy=0;" parent="dNxyNK7c78bLwvsdeMH5-20" source="dVlf60h_YGhDtAhVZqEt-1" target="dNxyNK7c78bLwvsdeMH5-30" edge="1">
          <mxGeometry relative="1" as="geometry">
            <Array as="points">
              <mxPoint x="480" y="200"/>
              <mxPoint x="480" y="70"/>
            </Array>
          </mxGeometry>
        </mxCell>
        <mxCell id="dVlf60h_YGhDtAhVZqEt-1" value="Ręczne dodanie dowodu zakupu oraz przypisanie produktów" style="rounded=0;whiteSpace=wrap;html=1;fontFamily=Helvetica;fontSize=12;fontColor=#000000;align=center;" parent="dNxyNK7c78bLwvsdeMH5-20" vertex="1">
          <mxGeometry x="310" y="170" width="130" height="60" as="geometry"/>
        </mxCell>
        <mxCell id="o-01WKtyarhJ4CHqcBXP-2" value="Zakupione i opłacone produkty w MM" style="text;html=1;strokeColor=none;fillColor=none;align=center;verticalAlign=middle;whiteSpace=wrap;rounded=0;" parent="dNxyNK7c78bLwvsdeMH5-20" vertex="1">
          <mxGeometry x="25" y="10" width="110" height="30" as="geometry"/>
        </mxCell>
        <mxCell id="409IC2wqUijx9iHw1cHA-11" style="edgeStyle=orthogonalEdgeStyle;rounded=0;orthogonalLoop=1;jettySize=auto;html=1;entryX=0;entryY=0.5;entryDx=0;entryDy=0;" parent="dNxyNK7c78bLwvsdeMH5-20" source="o-01WKtyarhJ4CHqcBXP-32" target="409IC2wqUijx9iHw1cHA-9" edge="1">
          <mxGeometry relative="1" as="geometry"/>
        </mxCell>
        <mxCell id="o-01WKtyarhJ4CHqcBXP-32" value="Określenie akcji marketingowych" style="rounded=0;whiteSpace=wrap;html=1;fontFamily=Helvetica;fontSize=12;fontColor=#000000;align=center;" parent="dNxyNK7c78bLwvsdeMH5-20" vertex="1">
          <mxGeometry x="780" y="40" width="150" height="60" as="geometry"/>
        </mxCell>
        <mxCell id="409IC2wqUijx9iHw1cHA-12" style="edgeStyle=orthogonalEdgeStyle;rounded=0;orthogonalLoop=1;jettySize=auto;html=1;entryX=0.5;entryY=0;entryDx=0;entryDy=0;" parent="dNxyNK7c78bLwvsdeMH5-20" source="409IC2wqUijx9iHw1cHA-9" target="dNxyNK7c78bLwvsdeMH5-24" edge="1">
          <mxGeometry relative="1" as="geometry">
            <Array as="points">
              <mxPoint x="1090" y="20"/>
              <mxPoint x="250" y="20"/>
            </Array>
          </mxGeometry>
        </mxCell>
        <mxCell id="409IC2wqUijx9iHw1cHA-16" style="edgeStyle=orthogonalEdgeStyle;rounded=0;orthogonalLoop=1;jettySize=auto;html=1;entryX=0;entryY=0.5;entryDx=0;entryDy=0;" parent="dNxyNK7c78bLwvsdeMH5-20" source="409IC2wqUijx9iHw1cHA-9" target="409IC2wqUijx9iHw1cHA-15" edge="1">
          <mxGeometry relative="1" as="geometry"/>
        </mxCell>
        <mxCell id="409IC2wqUijx9iHw1cHA-9" value="" style="rhombus;whiteSpace=wrap;html=1;fontFamily=Helvetica;fontSize=12;fontColor=#000000;align=center;" parent="dNxyNK7c78bLwvsdeMH5-20" vertex="1">
          <mxGeometry x="1070" y="50" width="40" height="40" as="geometry"/>
        </mxCell>
        <mxCell id="409IC2wqUijx9iHw1cHA-10" value="Czy dodać powiązany dokument zakupu" style="text;html=1;strokeColor=none;fillColor=none;align=center;verticalAlign=middle;whiteSpace=wrap;rounded=0;" parent="dNxyNK7c78bLwvsdeMH5-20" vertex="1">
          <mxGeometry x="1040" y="110" width="90" height="20" as="geometry"/>
        </mxCell>
        <mxCell id="409IC2wqUijx9iHw1cHA-13" value="Tak" style="text;html=1;strokeColor=none;fillColor=none;align=center;verticalAlign=middle;whiteSpace=wrap;rounded=0;" parent="dNxyNK7c78bLwvsdeMH5-20" vertex="1">
          <mxGeometry x="970" y="20" width="90" height="20" as="geometry"/>
        </mxCell>
        <mxCell id="409IC2wqUijx9iHw1cHA-14" value="Nie" style="text;html=1;strokeColor=none;fillColor=none;align=center;verticalAlign=middle;whiteSpace=wrap;rounded=0;" parent="dNxyNK7c78bLwvsdeMH5-20" vertex="1">
          <mxGeometry x="1140" y="40" width="90" height="20" as="geometry"/>
        </mxCell>
        <mxCell id="409IC2wqUijx9iHw1cHA-18" style="edgeStyle=orthogonalEdgeStyle;rounded=0;orthogonalLoop=1;jettySize=auto;html=1;" parent="dNxyNK7c78bLwvsdeMH5-20" source="409IC2wqUijx9iHw1cHA-15" target="409IC2wqUijx9iHw1cHA-17" edge="1">
          <mxGeometry relative="1" as="geometry"/>
        </mxCell>
        <mxCell id="409IC2wqUijx9iHw1cHA-15" value="Wprowadzanie kart dla każdej z akcji" style="rounded=0;whiteSpace=wrap;html=1;fontFamily=Helvetica;fontSize=12;fontColor=#000000;align=center;" parent="dNxyNK7c78bLwvsdeMH5-20" vertex="1">
          <mxGeometry x="1260" y="40" width="150" height="60" as="geometry"/>
        </mxCell>
        <mxCell id="409IC2wqUijx9iHw1cHA-23" style="edgeStyle=orthogonalEdgeStyle;rounded=0;orthogonalLoop=1;jettySize=auto;html=1;entryX=0.5;entryY=0;entryDx=0;entryDy=0;" parent="dNxyNK7c78bLwvsdeMH5-20" source="409IC2wqUijx9iHw1cHA-17" target="409IC2wqUijx9iHw1cHA-21" edge="1">
          <mxGeometry relative="1" as="geometry"/>
        </mxCell>
        <mxCell id="409IC2wqUijx9iHw1cHA-28" style="edgeStyle=orthogonalEdgeStyle;rounded=0;orthogonalLoop=1;jettySize=auto;html=1;entryX=0;entryY=0.5;entryDx=0;entryDy=0;" parent="dNxyNK7c78bLwvsdeMH5-20" source="409IC2wqUijx9iHw1cHA-17" target="409IC2wqUijx9iHw1cHA-27" edge="1">
          <mxGeometry relative="1" as="geometry"/>
        </mxCell>
        <mxCell id="409IC2wqUijx9iHw1cHA-17" value="" style="rhombus;whiteSpace=wrap;html=1;fontFamily=Helvetica;fontSize=12;fontColor=#000000;align=center;" parent="dNxyNK7c78bLwvsdeMH5-20" vertex="1">
          <mxGeometry x="1550" y="50" width="40" height="40" as="geometry"/>
        </mxCell>
        <mxCell id="409IC2wqUijx9iHw1cHA-19" value="Czy kwota bonusu &amp;gt;= 2000" style="text;html=1;strokeColor=none;fillColor=none;align=center;verticalAlign=middle;whiteSpace=wrap;rounded=0;" parent="dNxyNK7c78bLwvsdeMH5-20" vertex="1">
          <mxGeometry x="1525" y="20" width="90" height="20" as="geometry"/>
        </mxCell>
        <mxCell id="409IC2wqUijx9iHw1cHA-21" value="Przyjęcie podpisu pokwitowania odebrania kart podarunkowych" style="rounded=1;whiteSpace=wrap;html=1;" parent="dNxyNK7c78bLwvsdeMH5-20" vertex="1">
          <mxGeometry x="1510" y="170" width="120" height="60" as="geometry"/>
        </mxCell>
        <mxCell id="409IC2wqUijx9iHw1cHA-24" value="Nie" style="text;html=1;strokeColor=none;fillColor=none;align=center;verticalAlign=middle;whiteSpace=wrap;rounded=0;" parent="dNxyNK7c78bLwvsdeMH5-20" vertex="1">
          <mxGeometry x="1670" y="30" width="90" height="20" as="geometry"/>
        </mxCell>
        <mxCell id="409IC2wqUijx9iHw1cHA-25" value="Tak" style="text;html=1;strokeColor=none;fillColor=none;align=center;verticalAlign=middle;whiteSpace=wrap;rounded=0;" parent="dNxyNK7c78bLwvsdeMH5-20" vertex="1">
          <mxGeometry x="1550" y="110" width="90" height="20" as="geometry"/>
        </mxCell>
        <mxCell id="409IC2wqUijx9iHw1cHA-39" style="edgeStyle=orthogonalEdgeStyle;rounded=0;orthogonalLoop=1;jettySize=auto;html=1;entryX=0;entryY=0.5;entryDx=0;entryDy=0;" parent="dNxyNK7c78bLwvsdeMH5-20" source="409IC2wqUijx9iHw1cHA-27" target="409IC2wqUijx9iHw1cHA-37" edge="1">
          <mxGeometry relative="1" as="geometry"/>
        </mxCell>
        <mxCell id="409IC2wqUijx9iHw1cHA-27" value="" style="rhombus;whiteSpace=wrap;html=1;fontFamily=Helvetica;fontSize=12;fontColor=#000000;align=center;" parent="dNxyNK7c78bLwvsdeMH5-20" vertex="1">
          <mxGeometry x="1800" y="50" width="40" height="40" as="geometry"/>
        </mxCell>
        <mxCell id="409IC2wqUijx9iHw1cHA-29" value="Czy wydawane są karty MM" style="text;html=1;strokeColor=none;fillColor=none;align=center;verticalAlign=middle;whiteSpace=wrap;rounded=0;" parent="dNxyNK7c78bLwvsdeMH5-20" vertex="1">
          <mxGeometry x="1775" y="20" width="90" height="20" as="geometry"/>
        </mxCell>
        <mxCell id="409IC2wqUijx9iHw1cHA-33" value="Nie" style="text;html=1;strokeColor=none;fillColor=none;align=center;verticalAlign=middle;whiteSpace=wrap;rounded=0;" parent="dNxyNK7c78bLwvsdeMH5-20" vertex="1">
          <mxGeometry x="1910" y="30" width="90" height="20" as="geometry"/>
        </mxCell>
        <mxCell id="409IC2wqUijx9iHw1cHA-34" value="Tak" style="text;html=1;strokeColor=none;fillColor=none;align=center;verticalAlign=middle;whiteSpace=wrap;rounded=0;" parent="dNxyNK7c78bLwvsdeMH5-20" vertex="1">
          <mxGeometry x="1800" y="110" width="90" height="20" as="geometry"/>
        </mxCell>
        <mxCell id="409IC2wqUijx9iHw1cHA-40" style="edgeStyle=orthogonalEdgeStyle;rounded=0;orthogonalLoop=1;jettySize=auto;html=1;entryX=0;entryY=0.5;entryDx=0;entryDy=0;" parent="dNxyNK7c78bLwvsdeMH5-20" source="409IC2wqUijx9iHw1cHA-37" target="409IC2wqUijx9iHw1cHA-36" edge="1">
          <mxGeometry relative="1" as="geometry"/>
        </mxCell>
        <mxCell id="409IC2wqUijx9iHw1cHA-37" value="Skanowanie kart do wydania" style="rounded=1;whiteSpace=wrap;html=1;" parent="dNxyNK7c78bLwvsdeMH5-20" vertex="1">
          <mxGeometry x="2030" y="40" width="120" height="60" as="geometry"/>
        </mxCell>
        <mxCell id="409IC2wqUijx9iHw1cHA-41" style="edgeStyle=orthogonalEdgeStyle;rounded=0;orthogonalLoop=1;jettySize=auto;html=1;entryX=0;entryY=0.5;entryDx=0;entryDy=0;" parent="dNxyNK7c78bLwvsdeMH5-20" source="409IC2wqUijx9iHw1cHA-36" target="dNxyNK7c78bLwvsdeMH5-32" edge="1">
          <mxGeometry relative="1" as="geometry"/>
        </mxCell>
        <mxCell id="409IC2wqUijx9iHw1cHA-36" value="Wydanie kart" style="rounded=1;whiteSpace=wrap;html=1;" parent="dNxyNK7c78bLwvsdeMH5-20" vertex="1">
          <mxGeometry x="2250" y="40" width="120" height="60" as="geometry"/>
        </mxCell>
        <mxCell id="409IC2wqUijx9iHw1cHA-42" value="Wydanie kart i możliwość wydrukowania formularza wydania&amp;nbsp;" style="text;html=1;strokeColor=none;fillColor=none;align=center;verticalAlign=middle;whiteSpace=wrap;rounded=0;" parent="dNxyNK7c78bLwvsdeMH5-20" vertex="1">
          <mxGeometry x="2400" y="15" width="250" height="20" as="geometry"/>
        </mxCell>
        <mxCell id="dNxyNK7c78bLwvsdeMH5-21" value="WWS" style="swimlane;html=1;startSize=20;horizontal=0;" parent="dNxyNK7c78bLwvsdeMH5-19" vertex="1">
          <mxGeometry x="20" y="270" width="3400" height="300" as="geometry"/>
        </mxCell>
        <mxCell id="409IC2wqUijx9iHw1cHA-2" style="edgeStyle=orthogonalEdgeStyle;rounded=0;orthogonalLoop=1;jettySize=auto;html=1;" parent="dNxyNK7c78bLwvsdeMH5-21" source="dNxyNK7c78bLwvsdeMH5-28" target="dNxyNK7c78bLwvsdeMH5-36" edge="1">
          <mxGeometry relative="1" as="geometry"/>
        </mxCell>
        <mxCell id="dNxyNK7c78bLwvsdeMH5-28" value="" style="rhombus;whiteSpace=wrap;html=1;fontFamily=Helvetica;fontSize=12;fontColor=#000000;align=center;" parent="dNxyNK7c78bLwvsdeMH5-21" vertex="1">
          <mxGeometry x="230" y="60" width="40" height="40" as="geometry"/>
        </mxCell>
        <mxCell id="o-01WKtyarhJ4CHqcBXP-3" value="Czy udało się połączyć z WWS&lt;br&gt;" style="text;html=1;strokeColor=none;fillColor=none;align=center;verticalAlign=middle;whiteSpace=wrap;rounded=0;" parent="dNxyNK7c78bLwvsdeMH5-21" vertex="1">
          <mxGeometry x="140" y="70" width="90" height="20" as="geometry"/>
        </mxCell>
        <mxCell id="o-01WKtyarhJ4CHqcBXP-7" value="Nie" style="text;html=1;strokeColor=none;fillColor=none;align=center;verticalAlign=middle;whiteSpace=wrap;rounded=0;" parent="dNxyNK7c78bLwvsdeMH5-21" vertex="1">
          <mxGeometry x="290" y="50" width="90" height="20" as="geometry"/>
        </mxCell>
        <mxCell id="o-01WKtyarhJ4CHqcBXP-9" value="Tak" style="text;html=1;strokeColor=none;fillColor=none;align=center;verticalAlign=middle;whiteSpace=wrap;rounded=0;" parent="dNxyNK7c78bLwvsdeMH5-21" vertex="1">
          <mxGeometry x="220" y="125" width="90" height="20" as="geometry"/>
        </mxCell>
        <mxCell id="409IC2wqUijx9iHw1cHA-6" style="edgeStyle=orthogonalEdgeStyle;rounded=0;orthogonalLoop=1;jettySize=auto;html=1;entryX=0;entryY=0.75;entryDx=0;entryDy=0;" parent="dNxyNK7c78bLwvsdeMH5-21" source="dNxyNK7c78bLwvsdeMH5-36" target="409IC2wqUijx9iHw1cHA-4" edge="1">
          <mxGeometry relative="1" as="geometry">
            <Array as="points">
              <mxPoint x="250" y="259"/>
            </Array>
          </mxGeometry>
        </mxCell>
        <mxCell id="dNxyNK7c78bLwvsdeMH5-36" value="" style="rhombus;whiteSpace=wrap;html=1;fontFamily=Helvetica;fontSize=12;fontColor=#000000;align=center;" parent="dNxyNK7c78bLwvsdeMH5-21" vertex="1">
          <mxGeometry x="230" y="160" width="40" height="40" as="geometry"/>
        </mxCell>
        <mxCell id="o-01WKtyarhJ4CHqcBXP-8" value="Czy udało się znaleźć dowód zakupu" style="text;html=1;strokeColor=none;fillColor=none;align=center;verticalAlign=middle;whiteSpace=wrap;rounded=0;" parent="dNxyNK7c78bLwvsdeMH5-21" vertex="1">
          <mxGeometry x="140" y="170" width="90" height="20" as="geometry"/>
        </mxCell>
        <mxCell id="o-01WKtyarhJ4CHqcBXP-14" style="edgeStyle=orthogonalEdgeStyle;rounded=0;orthogonalLoop=1;jettySize=auto;html=1;exitX=0.5;exitY=1;exitDx=0;exitDy=0;" parent="dNxyNK7c78bLwvsdeMH5-21" source="o-01WKtyarhJ4CHqcBXP-8" target="o-01WKtyarhJ4CHqcBXP-8" edge="1">
          <mxGeometry relative="1" as="geometry"/>
        </mxCell>
        <mxCell id="o-01WKtyarhJ4CHqcBXP-15" value="Nie" style="text;html=1;strokeColor=none;fillColor=none;align=center;verticalAlign=middle;whiteSpace=wrap;rounded=0;" parent="dNxyNK7c78bLwvsdeMH5-21" vertex="1">
          <mxGeometry x="290" y="160" width="90" height="20" as="geometry"/>
        </mxCell>
        <mxCell id="409IC2wqUijx9iHw1cHA-4" value="Przygotowanie danych o produktach" style="rounded=1;whiteSpace=wrap;html=1;" parent="dNxyNK7c78bLwvsdeMH5-21" vertex="1">
          <mxGeometry x="490" y="210" width="140" height="65" as="geometry"/>
        </mxCell>
        <mxCell id="o-01WKtyarhJ4CHqcBXP-20" value="Tak" style="text;html=1;strokeColor=none;fillColor=none;align=center;verticalAlign=middle;whiteSpace=wrap;rounded=0;" parent="dNxyNK7c78bLwvsdeMH5-21" vertex="1">
          <mxGeometry x="290" y="232.5" width="90" height="20" as="geometry"/>
        </mxCell>
        <mxCell id="409IC2wqUijx9iHw1cHA-31" value="Doładowanie kart MM" style="rounded=1;whiteSpace=wrap;html=1;" parent="dNxyNK7c78bLwvsdeMH5-21" vertex="1">
          <mxGeometry x="1770" y="85" width="120" height="60" as="geometry"/>
        </mxCell>
        <mxCell id="409IC2wqUijx9iHw1cHA-3" style="edgeStyle=orthogonalEdgeStyle;rounded=0;orthogonalLoop=1;jettySize=auto;html=1;entryX=0.75;entryY=1;entryDx=0;entryDy=0;" parent="dNxyNK7c78bLwvsdeMH5-19" source="dNxyNK7c78bLwvsdeMH5-36" target="dVlf60h_YGhDtAhVZqEt-1" edge="1">
          <mxGeometry relative="1" as="geometry"/>
        </mxCell>
        <mxCell id="409IC2wqUijx9iHw1cHA-7" style="edgeStyle=orthogonalEdgeStyle;rounded=0;orthogonalLoop=1;jettySize=auto;html=1;entryX=0.4;entryY=1;entryDx=0;entryDy=0;entryPerimeter=0;" parent="dNxyNK7c78bLwvsdeMH5-19" source="409IC2wqUijx9iHw1cHA-4" target="dNxyNK7c78bLwvsdeMH5-30" edge="1">
          <mxGeometry relative="1" as="geometry"/>
        </mxCell>
        <mxCell id="409IC2wqUijx9iHw1cHA-32" style="edgeStyle=orthogonalEdgeStyle;rounded=0;orthogonalLoop=1;jettySize=auto;html=1;entryX=0.419;entryY=-0.081;entryDx=0;entryDy=0;entryPerimeter=0;" parent="dNxyNK7c78bLwvsdeMH5-19" source="409IC2wqUijx9iHw1cHA-27" target="409IC2wqUijx9iHw1cHA-31" edge="1">
          <mxGeometry relative="1" as="geometry"/>
        </mxCell>
        <mxCell id="409IC2wqUijx9iHw1cHA-45" style="edgeStyle=orthogonalEdgeStyle;rounded=0;orthogonalLoop=1;jettySize=auto;html=1;entryX=0.5;entryY=1;entryDx=0;entryDy=0;" parent="dNxyNK7c78bLwvsdeMH5-19" source="409IC2wqUijx9iHw1cHA-31" target="409IC2wqUijx9iHw1cHA-37" edge="1">
          <mxGeometry relative="1" as="geometry"/>
        </mxCell>
      </root>
    </mxGraphModel>
  </diagram>
  <diagram id="GnnmoCE38soAa-BMovuD" name="Page-2">
    <mxGraphModel dx="1102" dy="586" grid="1" gridSize="10" guides="1" tooltips="1" connect="1" arrows="1" fold="1" page="1" pageScale="1" pageWidth="850" pageHeight="1100" math="0" shadow="0">
      <root>
        <mxCell id="E1e1udzU2NYnG-Tqe7Uk-0"/>
        <mxCell id="E1e1udzU2NYnG-Tqe7Uk-1" parent="E1e1udzU2NYnG-Tqe7Uk-0"/>
      </root>
    </mxGraphModel>
  </diagram>
</mxfile>
